<?xml version="1.0" encoding="UTF-8"?>
<svg version="1.1" xmlns="http://www.w3.org/2000/svg" width="1280" height="1280">
<path d="M0 0 C0.96847178 -0.00467997 0.96847178 -0.00467997 1.95650864 -0.00945449 C4.12376741 -0.01744301 6.29074686 -0.01110767 8.45800781 -0.00482178 C10.01021489 -0.00753127 11.56242068 -0.01109196 13.11462402 -0.01544189 C17.33355348 -0.0245732 21.55238532 -0.0210186 25.77131653 -0.01468372 C30.18218249 -0.00962757 34.59303997 -0.0143141 39.00390625 -0.01745605 C46.41179915 -0.02109682 53.81965221 -0.0162937 61.22753906 -0.0067749 C69.79755217 0.00410986 78.36747012 0.00058436 86.93748093 -0.01042771 C94.28955272 -0.01949744 101.64159584 -0.02078741 108.99367142 -0.01555037 C113.38735769 -0.01242894 117.7809992 -0.01202608 122.17468262 -0.01862335 C126.30492111 -0.02439162 130.43503666 -0.02040949 134.56526184 -0.00883484 C136.08303116 -0.00618546 137.6008108 -0.00695806 139.11857605 -0.01136017 C141.18661327 -0.01680623 143.25425383 -0.00999331 145.32226562 0 C146.48075012 0.00075405 147.63923462 0.0015081 148.83282471 0.002285 C151.66113281 0.25396729 151.66113281 0.25396729 154.66113281 2.25396729 C155.02189636 4.31674194 155.02189636 4.31674194 155.00170898 6.88726807 C155.00148239 7.8481131 155.0012558 8.80895813 155.00102234 9.79891968 C154.98553848 10.83853851 154.97005463 11.87815735 154.95410156 12.94927979 C154.94985672 14.01186005 154.94561188 15.07444031 154.9412384 16.16921997 C154.92440671 19.57272374 154.88674584 22.97564162 154.84863281 26.37896729 C154.8335918 28.68234417 154.81990239 30.98573031 154.80761719 33.28912354 C154.77448855 38.94427234 154.72424478 44.59907797 154.66113281 50.25396729 C155.25359802 50.24508484 155.84606323 50.23620239 156.45648193 50.22705078 C162.62062944 50.13858433 168.78459674 50.07823603 174.94921875 50.03424072 C177.25007451 50.0141204 179.5508791 49.98682095 181.8515625 49.95220947 C185.15800598 49.90371116 188.46377367 49.8810025 191.77050781 49.86334229 C192.79980408 49.84269714 193.82910034 49.822052 194.8895874 49.80078125 C198.83060055 49.79954186 201.77209733 49.80421992 205.31738281 51.59771729 C207.52870279 55.96893119 207.14848277 60.32221618 207.05175781 65.14459229 C207.04609802 66.20434265 207.04043823 67.26409302 207.03460693 68.35595703 C207.01222522 71.73908756 206.9620238 75.12115713 206.91113281 78.50396729 C206.89107021 80.79822282 206.87281903 83.09249496 206.85644531 85.38677979 C206.81235461 91.00953731 206.74542417 96.6316765 206.66113281 102.25396729 C207.25359802 102.24508484 207.84606323 102.23620239 208.45648193 102.22705078 C214.62062944 102.13858433 220.78459674 102.07823603 226.94921875 102.03424072 C229.25007451 102.0141204 231.5508791 101.98682095 233.8515625 101.95220947 C237.15800598 101.90371116 240.46377367 101.8810025 243.77050781 101.86334229 C244.79980408 101.84269714 245.82910034 101.822052 246.8895874 101.80078125 C250.83060055 101.79954186 253.77209733 101.80421992 257.31738281 103.59771729 C259.52870279 107.96893119 259.14848277 112.32221618 259.05175781 117.14459229 C259.04609802 118.20434265 259.04043823 119.26409302 259.03460693 120.35595703 C259.01222522 123.73908756 258.9620238 127.12115713 258.91113281 130.50396729 C258.89107021 132.79822282 258.87281903 135.09249496 258.85644531 137.38677979 C258.81235461 143.00953731 258.74542417 148.6316765 258.66113281 154.25396729 C259.25359802 154.24508484 259.84606323 154.23620239 260.45648193 154.22705078 C266.62062944 154.13858433 272.78459674 154.07823603 278.94921875 154.03424072 C281.25007451 154.0141204 283.5508791 153.98682095 285.8515625 153.95220947 C289.15800598 153.90371116 292.46377367 153.8810025 295.77050781 153.86334229 C296.79980408 153.84269714 297.82910034 153.822052 298.8895874 153.80078125 C299.85028137 153.80047913 300.81097534 153.800177 301.80078125 153.79986572 C302.64461365 153.79098328 303.48844604 153.78210083 304.35784912 153.77294922 C307.52940636 154.43529765 308.61937469 155.77505899 310.66113281 158.25396729 C311.15981747 160.65726484 311.15981747 160.65726484 311.1579268 163.39307046 C311.16691597 164.43985369 311.17590514 165.48663691 311.18516672 166.56514084 C311.17465866 167.71617889 311.16415061 168.86721693 311.15332413 170.05313492 C311.1579395 171.28013284 311.16255488 172.50713077 311.16731012 173.77131045 C311.17610761 177.19420425 311.16686088 180.61620863 311.15019758 184.03901802 C311.13648861 187.756108 311.14593861 191.47314883 311.15250754 195.19024825 C311.16081389 201.71041555 311.15420818 208.23043707 311.13795471 214.75058746 C311.11385331 224.44584133 311.11260787 234.14100294 311.11612267 243.8362813 C311.12138338 260.14379395 311.10799328 276.45124186 311.08405304 292.75873566 C311.06040245 308.91024343 311.0449928 325.06172425 311.04064178 341.21324921 C311.04036683 342.21668932 311.04009187 343.22012943 311.03980858 344.25397681 C311.03845528 349.34973347 311.03724973 354.44549015 311.03610107 359.54124686 C311.02769459 395.65481526 311.00073167 431.76834843 310.96289062 467.88189697 C310.92616599 502.97043673 310.89782513 538.05896685 310.88085938 573.14752197 C310.88033327 574.22869235 310.87980717 575.30986272 310.87926512 576.42379584 C310.87399114 587.28113883 310.86888787 598.1384819 310.86390968 608.99582503 C310.85376424 631.11440471 310.84247923 653.23298375 310.83050537 675.3515625 C310.82968163 676.87709973 310.82968163 676.87709973 310.82884125 678.4334559 C310.79202514 746.37364102 310.72864278 814.31380659 310.66113281 882.25396729 C311.53139343 882.2524484 312.40165405 882.25092952 313.2982862 882.24936461 C364.83749514 882.15991937 416.37669588 882.09125501 467.91596685 882.04970597 C474.09957699 882.04470293 480.28318697 882.03952566 486.46679688 882.03424072 C487.69788092 882.03319148 488.92896496 882.03214224 490.19735458 882.0310612 C510.15037737 882.01363958 530.10335422 881.98209223 550.05634972 881.9453561 C570.51863072 881.90799555 590.9808876 881.88574179 611.4432013 881.87761331 C624.07712032 881.87211539 636.71090951 881.85472929 649.34478858 881.82230142 C657.99956735 881.80121381 666.65427867 881.79475415 675.30908129 881.79996178 C680.30802374 881.80253254 685.3067388 881.79849674 690.30564117 881.77714539 C694.87775011 881.7577588 699.44947755 881.7566456 704.02160361 881.77037171 C705.67981412 881.77206951 707.33804791 881.76692854 708.99621221 881.75443456 C711.24280904 881.7384846 713.48801142 881.74696819 715.73458481 881.76177597 C716.98462414 881.76025709 718.23466346 881.75873821 719.52258277 881.7571733 C723.2394601 882.3455094 724.41929866 883.28779889 726.66113281 886.25396729 C727.14215088 888.55725098 727.14215088 888.55725098 727.11523438 891.11431885 C727.11493225 892.07501282 727.11463013 893.03570679 727.11431885 894.0255127 C727.09367371 895.05480896 727.07302856 896.08410522 727.05175781 897.14459229 C727.04609802 898.20434265 727.04043823 899.26409302 727.03460693 900.35595703 C727.01222522 903.73908756 726.9620238 907.12115713 726.91113281 910.50396729 C726.89107021 912.79822282 726.87281903 915.09249496 726.85644531 917.38677979 C726.81235461 923.00953731 726.74542417 928.6316765 726.66113281 934.25396729 C727.25359802 934.24508484 727.84606323 934.23620239 728.45648193 934.22705078 C734.62062944 934.13858433 740.78459674 934.07823603 746.94921875 934.03424072 C749.25007451 934.0141204 751.5508791 933.98682095 753.8515625 933.95220947 C757.15800598 933.90371116 760.46377367 933.8810025 763.77050781 933.86334229 C764.79980408 933.84269714 765.82910034 933.822052 766.8895874 933.80078125 C770.83060055 933.79954186 773.77209733 933.80421992 777.31738281 935.59771729 C779.52870279 939.96893119 779.14848277 944.32221618 779.05175781 949.14459229 C779.04609802 950.20434265 779.04043823 951.26409302 779.03460693 952.35595703 C779.01222522 955.73908756 778.9620238 959.12115713 778.91113281 962.50396729 C778.89107021 964.79822282 778.87281903 967.09249496 778.85644531 969.38677979 C778.81235461 975.00953731 778.74542417 980.6316765 778.66113281 986.25396729 C779.25359802 986.24508484 779.84606323 986.23620239 780.45648193 986.22705078 C786.62062944 986.13858433 792.78459674 986.07823603 798.94921875 986.03424072 C801.25007451 986.0141204 803.5508791 985.98682095 805.8515625 985.95220947 C809.15800598 985.90371116 812.46377367 985.8810025 815.77050781 985.86334229 C816.79980408 985.84269714 817.82910034 985.822052 818.8895874 985.80078125 C822.83060055 985.79954186 825.77209733 985.80421992 829.31738281 987.59771729 C831.52870279 991.96893119 831.14848277 996.32221618 831.05175781 1001.14459229 C831.04609802 1002.20434265 831.04043823 1003.26409302 831.03460693 1004.35595703 C831.01222522 1007.73908756 830.9620238 1011.12115713 830.91113281 1014.50396729 C830.89107021 1016.79822282 830.87281903 1019.09249496 830.85644531 1021.38677979 C830.81235461 1027.00953731 830.74542417 1032.6316765 830.66113281 1038.25396729 C831.25803925 1038.24730545 831.85494568 1038.24064362 832.46994019 1038.23377991 C838.66626617 1038.1675589 844.86249212 1038.12222202 851.05908203 1038.08917236 C853.37357667 1038.07405876 855.68804255 1038.05356732 858.00244141 1038.02764893 C861.32363977 1037.99137888 864.64446049 1037.97426685 867.96582031 1037.96099854 C869.52524857 1037.93777275 869.52524857 1037.93777275 871.11618042 1037.91407776 C872.07702545 1037.91385117 873.03787048 1037.91362457 874.02783203 1037.91339111 C874.87610565 1037.90672928 875.72437927 1037.90006744 876.59835815 1037.89320374 C877.27907379 1038.01225571 877.95978943 1038.13130768 878.66113281 1038.25396729 C881.04084444 1041.82353472 880.91234208 1043.35555891 880.9151001 1047.59283447 C880.91822008 1048.23848232 880.92134006 1048.88413017 880.92455459 1049.54934311 C880.93254311 1051.71660188 880.92620777 1053.88358133 880.91992188 1056.05084229 C880.92263136 1057.60304936 880.92619206 1059.15525515 880.93054199 1060.7074585 C880.9396733 1064.92638796 880.9361187 1069.14521979 880.92978382 1073.364151 C880.92472767 1077.77501696 880.9294142 1082.18587444 880.93255615 1086.59674072 C880.93619692 1094.00463363 880.9313938 1101.41248668 880.921875 1108.82037354 C880.91099023 1117.39038664 880.91451573 1125.9603046 880.92552781 1134.5303154 C880.93459754 1141.88238719 880.93588751 1149.23443031 880.93065047 1156.58650589 C880.92752904 1160.98019216 880.92712618 1165.37383368 880.93372345 1169.76751709 C880.93949171 1173.89775558 880.93550959 1178.02787113 880.92393494 1182.15809631 C880.92128556 1183.67586564 880.92205816 1185.19364527 880.92646027 1186.71141052 C880.93190632 1188.77944775 880.92509341 1190.84708831 880.9151001 1192.9151001 C880.91434605 1194.07358459 880.913592 1195.23206909 880.91281509 1196.42565918 C880.66113281 1199.25396729 880.66113281 1199.25396729 878.66113281 1202.25396729 C876.59835815 1202.61473083 876.59835815 1202.61473083 874.02783203 1202.59454346 C873.066987 1202.59431686 872.10614197 1202.59409027 871.11618042 1202.59385681 C870.07656158 1202.57837296 869.03694275 1202.5628891 867.96582031 1202.54693604 C866.90324005 1202.54269119 865.84065979 1202.53844635 864.74588013 1202.53407288 C861.34237636 1202.51724118 857.93945848 1202.47958031 854.53613281 1202.44146729 C852.23275593 1202.42642628 849.92936979 1202.41273686 847.62597656 1202.40045166 C841.97082776 1202.36732303 836.31602213 1202.31707925 830.66113281 1202.25396729 C830.66779465 1202.85087372 830.67445648 1203.44778015 830.68132019 1204.06277466 C830.7475412 1210.25910064 830.79287808 1216.4553266 830.82592773 1222.6519165 C830.84104134 1224.96641114 830.86153277 1227.28087702 830.88745117 1229.59527588 C830.92372122 1232.91647424 830.94083325 1236.23729496 830.95410156 1239.55865479 C830.96958542 1240.59827362 830.98506927 1241.63789246 831.00102234 1242.70901489 C831.00124893 1243.66985992 831.00147552 1244.63070496 831.00170898 1245.6206665 C831.00837082 1246.46894012 831.01503265 1247.31721375 831.02189636 1248.19119263 C830.90284439 1248.87190826 830.78379242 1249.5526239 830.66113281 1250.25396729 C827.22372751 1252.54557082 825.98824752 1252.50413845 821.94435692 1252.50466561 C820.14219219 1252.51217617 820.14219219 1252.51217617 818.3036201 1252.51983845 C816.96090685 1252.51528439 815.61819421 1252.51054799 814.27548218 1252.50564957 C812.85056513 1252.5077344 811.42564913 1252.51069582 810.00073552 1252.5144583 C806.05833734 1252.52229258 802.11603628 1252.51756245 798.17363957 1252.51090239 C793.89478303 1252.50585303 789.615942 1252.51233923 785.33708763 1252.51738906 C777.82898181 1252.52463272 770.32090472 1252.5243809 762.81279755 1252.51929474 C751.64826701 1252.51175206 740.48376085 1252.51558561 729.3192305 1252.52171135 C709.38324895 1252.53226198 689.44728018 1252.53132245 669.5112974 1252.52555353 C652.06537121 1252.52052972 634.61944972 1252.5192056 617.17352295 1252.52159882 C616.01795133 1252.52175159 614.86237971 1252.52190436 613.67179076 1252.52206176 C608.98138437 1252.5226844 604.29097798 1252.52332119 599.6005716 1252.52398128 C555.5677954 1252.53010436 511.53502737 1252.52454431 467.50225243 1252.51378749 C428.35013006 1252.50429572 389.1980207 1252.50514495 350.04589844 1252.51470947 C306.09555423 1252.52541017 262.14521723 1252.52967018 218.1948719 1252.52348495 C213.51282883 1252.52284347 208.83078575 1252.5222178 204.14874268 1252.52159882 C202.99583695 1252.52144066 201.84293121 1252.52128251 200.65508895 1252.52111956 C183.21673294 1252.51884107 165.77838214 1252.52151175 148.34002686 1252.52655792 C128.51917616 1252.5322648 108.69834031 1252.53087171 88.87749147 1252.51999643 C77.77361468 1252.51410557 66.66976998 1252.51376676 55.565894 1252.52128878 C48.16063633 1252.5257536 40.75540453 1252.5230188 33.35015071 1252.51427925 C29.12310184 1252.50949479 24.89611699 1252.50795028 20.66907001 1252.51509121 C16.83003257 1252.52151093 12.99111646 1252.51886684 9.15208802 1252.50872989 C7.76575567 1252.50670151 6.37941347 1252.50808424 4.99308887 1252.51314177 C3.12137078 1252.51949004 1.24962131 1252.51246601 -0.62209129 1252.50466561 C-2.18143664 1252.50446234 -2.18143664 1252.50446234 -3.77228391 1252.50425495 C-6.33886719 1252.25396729 -6.33886719 1252.25396729 -9.33886719 1250.25396729 C-9.69963074 1248.19119263 -9.69963074 1248.19119263 -9.67944336 1245.6206665 C-9.67921677 1244.65982147 -9.67899017 1243.69897644 -9.67875671 1242.70901489 C-9.66327286 1241.66939606 -9.647789 1240.62977722 -9.63183594 1239.55865479 C-9.62759109 1238.49607452 -9.62334625 1237.43349426 -9.61897278 1236.3387146 C-9.60214108 1232.93521083 -9.56448022 1229.53229296 -9.52636719 1226.12896729 C-9.51132618 1223.8255904 -9.49763676 1221.52220427 -9.48535156 1219.21881104 C-9.45222293 1213.56366223 -9.40197915 1207.90885661 -9.33886719 1202.25396729 C-9.9313324 1202.26284973 -10.52379761 1202.27173218 -11.13421631 1202.28088379 C-17.29836381 1202.36935024 -23.46233111 1202.42969854 -29.62695312 1202.47369385 C-31.92780888 1202.49381417 -34.22861348 1202.52111362 -36.52929688 1202.5557251 C-39.83574036 1202.60422341 -43.14150804 1202.62693207 -46.44824219 1202.64459229 C-47.47753845 1202.66523743 -48.50683472 1202.68588257 -49.56732178 1202.70715332 C-53.50833492 1202.70839271 -56.44983171 1202.70371465 -59.99511719 1200.91021729 C-62.20643716 1196.53900338 -61.82621715 1192.18571839 -61.72949219 1187.36334229 C-61.7238324 1186.30359192 -61.71817261 1185.24384155 -61.71234131 1184.15197754 C-61.68995959 1180.76884701 -61.63975817 1177.38677744 -61.58886719 1174.00396729 C-61.56880459 1171.70971175 -61.5505534 1169.41543961 -61.53417969 1167.12115479 C-61.49008899 1161.49839726 -61.42315854 1155.87625807 -61.33886719 1150.25396729 C-61.93577362 1150.26062912 -62.53268005 1150.26729095 -63.14767456 1150.27415466 C-69.34400054 1150.34037567 -75.5402265 1150.38571255 -81.73681641 1150.41876221 C-84.05131104 1150.43387581 -86.36577692 1150.45436725 -88.68017578 1150.48028564 C-92.00137415 1150.51655569 -95.32219487 1150.53366772 -98.64355469 1150.54693604 C-100.20298294 1150.57016182 -100.20298294 1150.57016182 -101.79391479 1150.59385681 C-103.23518234 1150.5941967 -103.23518234 1150.5941967 -104.70556641 1150.59454346 C-105.55384003 1150.60120529 -106.40211365 1150.60786713 -107.27609253 1150.61473083 C-107.95680817 1150.49567886 -108.6375238 1150.37662689 -109.33886719 1150.25396729 C-111.82144736 1146.53009703 -111.58910123 1144.65426418 -111.58956552 1140.2034893 C-111.59237015 1139.47643447 -111.59517478 1138.74937963 -111.59806441 1138.00029283 C-111.60507814 1135.54007964 -111.59772342 1133.08011344 -111.59054947 1130.61990356 C-111.59263393 1128.84025779 -111.59559506 1127.06061287 -111.5993582 1125.28096986 C-111.60719782 1120.35365996 -111.60245957 1115.42642769 -111.5958023 1110.49911895 C-111.59075549 1105.15259534 -111.5972381 1099.80608418 -111.60228896 1094.4595623 C-111.60953451 1085.07688301 -111.60927965 1075.6942267 -111.60419464 1066.31154633 C-111.59665367 1052.35955638 -111.60048462 1038.40758595 -111.60661126 1024.45559615 C-111.61655079 1000.98850163 -111.61689389 977.52141681 -111.61145782 954.05432129 C-111.61129223 953.33914159 -111.61112664 952.62396189 -111.61095603 951.88711008 C-111.61079017 951.17079246 -111.61062432 950.45447484 -111.61045343 949.71645063 C-111.60541203 927.91513266 -111.60410197 906.11381843 -111.60649872 884.3125 C-111.60665368 882.85398308 -111.60680799 881.39546616 -111.60696166 879.93694924 C-111.60758256 874.07613781 -111.60821989 868.21532638 -111.60888119 862.35451495 C-111.61071542 845.96995539 -111.61185646 829.58539583 -111.61245346 813.20083618 C-111.61248075 812.45465102 -111.61250804 811.70846587 -111.61253616 810.93966904 C-111.61335502 787.15418593 -111.61109939 763.36870413 -111.6067543 739.58322144 C-111.6066138 738.81148082 -111.60647331 738.03974021 -111.60632855 737.24461351 C-111.60403851 724.71114024 -111.60159965 712.177667 -111.5991482 699.64419376 C-111.58943514 649.93143237 -111.58988595 600.21868175 -111.59960938 550.50592041 C-111.60205165 537.97885133 -111.60447371 525.45178225 -111.6067543 512.92471313 C-111.6068952 512.15343149 -111.6070361 511.38214984 -111.60718126 510.58749603 C-111.61149203 486.82736331 -111.61332248 463.06723149 -111.61245346 439.30709839 C-111.61242629 438.56145749 -111.61239912 437.81581659 -111.61237113 437.0475805 C-111.61174624 420.68138675 -111.6104791 404.3151931 -111.60863245 387.94899944 C-111.60797414 382.09334986 -111.60734798 376.23770026 -111.60673103 370.38205067 C-111.60657626 368.92524649 -111.6064188 367.46844231 -111.60625864 366.01163813 C-111.60386901 344.21469867 -111.60590908 322.41776342 -111.61095603 300.62082449 C-111.61112163 299.90564479 -111.61128722 299.19046509 -111.61145782 298.45361328 C-111.61162319 297.73974625 -111.61178855 297.02587921 -111.61195893 296.29037984 C-111.61746859 272.24258512 -111.61545627 248.19480278 -111.60489634 224.14700937 C-111.59900444 210.27034713 -111.59866813 196.39371057 -111.60618869 182.51704898 C-111.61065228 173.26353095 -111.60792094 164.01003364 -111.59917915 154.7565187 C-111.59439298 149.4738309 -111.59285369 144.19119436 -111.59999111 138.90850806 C-111.60640653 134.11160979 -111.60377305 129.31480867 -111.59362979 124.5179176 C-111.59159988 122.78483923 -111.59298805 121.05175299 -111.59804167 119.31868079 C-111.60438098 116.98048191 -111.59858512 114.6426277 -111.58956552 112.30444527 C-111.58943 111.00532994 -111.58929448 109.70621462 -111.58915485 108.36773217 C-111.33886719 105.25396729 -111.33886719 105.25396729 -109.33886719 102.25396729 C-107.27609253 101.89320374 -107.27609253 101.89320374 -104.70556641 101.91339111 C-103.26429886 101.913731 -103.26429886 101.913731 -101.79391479 101.91407776 C-100.75429596 101.92956161 -99.71467712 101.94504547 -98.64355469 101.96099854 C-97.58097443 101.96524338 -96.51839417 101.96948822 -95.4236145 101.97386169 C-92.02011073 101.99069339 -88.61719286 102.02835426 -85.21386719 102.06646729 C-82.9104903 102.08150829 -80.60710417 102.09519771 -78.30371094 102.10748291 C-72.64856214 102.14061154 -66.99375651 102.19085532 -61.33886719 102.25396729 C-61.34774963 101.66150208 -61.35663208 101.06903687 -61.36578369 100.45861816 C-61.45425014 94.29447066 -61.51459845 88.13050336 -61.55859375 81.96588135 C-61.57871407 79.66502559 -61.60601353 77.36422099 -61.640625 75.0635376 C-61.68912331 71.75709411 -61.71183197 68.45132643 -61.72949219 65.14459229 C-61.75013733 64.11529602 -61.77078247 63.08599976 -61.79205322 62.0255127 C-61.79329261 58.08449955 -61.78861455 55.14300277 -59.99511719 51.59771729 C-55.62390328 49.38639731 -51.27061829 49.76661733 -46.44824219 49.86334229 C-44.85861664 49.87183197 -44.85861664 49.87183197 -43.23687744 49.88049316 C-39.85374691 49.90287488 -36.47167735 49.9530763 -33.08886719 50.00396729 C-30.79461165 50.02402989 -28.50033951 50.04228107 -26.20605469 50.05865479 C-20.58329716 50.10274549 -14.96115797 50.16967593 -9.33886719 50.25396729 C-9.34885994 49.35860764 -9.34885994 49.35860764 -9.35905457 48.44515991 C-9.42527557 42.24883393 -9.47061245 36.05260797 -9.50366211 29.85601807 C-9.51877572 27.54152343 -9.53926715 25.22705755 -9.56518555 22.91265869 C-9.60145559 19.59146033 -9.61856762 16.27063961 -9.63183594 12.94927979 C-9.64731979 11.90966095 -9.66280365 10.87004211 -9.67875671 9.79891968 C-9.67898331 8.83807465 -9.6792099 7.87722961 -9.67944336 6.88726807 C-9.68943611 5.61485764 -9.68943611 5.61485764 -9.69963074 4.31674194 C-9.58057877 3.63602631 -9.46152679 2.95531067 -9.33886719 2.25396729 C-5.76929975 -0.12574434 -4.23727557 0.00275802 0 0 Z " fill="#08889D" transform="translate(281.3388671875,13.74603271484375)"/>
<path d="M0 0 C0.96847178 -0.00467997 0.96847178 -0.00467997 1.95650864 -0.00945449 C4.12376741 -0.01744301 6.29074686 -0.01110767 8.45800781 -0.00482178 C10.01021489 -0.00753127 11.56242068 -0.01109196 13.11462402 -0.01544189 C17.33355348 -0.0245732 21.55238532 -0.0210186 25.77131653 -0.01468372 C30.18218249 -0.00962757 34.59303997 -0.0143141 39.00390625 -0.01745605 C46.41179915 -0.02109682 53.81965221 -0.0162937 61.22753906 -0.0067749 C69.79755217 0.00410986 78.36747012 0.00058436 86.93748093 -0.01042771 C94.28955272 -0.01949744 101.64159584 -0.02078741 108.99367142 -0.01555037 C113.38735769 -0.01242894 117.7809992 -0.01202608 122.17468262 -0.01862335 C126.30492111 -0.02439162 130.43503666 -0.02040949 134.56526184 -0.00883484 C136.08303116 -0.00618546 137.6008108 -0.00695806 139.11857605 -0.01136017 C141.18661327 -0.01680623 143.25425383 -0.00999331 145.32226562 0 C146.48075012 0.00075405 147.63923462 0.0015081 148.83282471 0.002285 C151.66113281 0.25396729 151.66113281 0.25396729 154.66113281 2.25396729 C155.02189636 4.31674194 155.02189636 4.31674194 155.00170898 6.88726807 C155.00148239 7.8481131 155.0012558 8.80895813 155.00102234 9.79891968 C154.98553848 10.83853851 154.97005463 11.87815735 154.95410156 12.94927979 C154.94985672 14.01186005 154.94561188 15.07444031 154.9412384 16.16921997 C154.92440671 19.57272374 154.88674584 22.97564162 154.84863281 26.37896729 C154.8335918 28.68234417 154.81990239 30.98573031 154.80761719 33.28912354 C154.77448855 38.94427234 154.72424478 44.59907797 154.66113281 50.25396729 C155.25359802 50.24508484 155.84606323 50.23620239 156.45648193 50.22705078 C162.62062944 50.13858433 168.78459674 50.07823603 174.94921875 50.03424072 C177.25007451 50.0141204 179.5508791 49.98682095 181.8515625 49.95220947 C185.15800598 49.90371116 188.46377367 49.8810025 191.77050781 49.86334229 C192.79980408 49.84269714 193.82910034 49.822052 194.8895874 49.80078125 C198.83060055 49.79954186 201.77209733 49.80421992 205.31738281 51.59771729 C207.52870279 55.96893119 207.14848277 60.32221618 207.05175781 65.14459229 C207.04609802 66.20434265 207.04043823 67.26409302 207.03460693 68.35595703 C207.01222522 71.73908756 206.9620238 75.12115713 206.91113281 78.50396729 C206.89107021 80.79822282 206.87281903 83.09249496 206.85644531 85.38677979 C206.81235461 91.00953731 206.74542417 96.6316765 206.66113281 102.25396729 C207.25359802 102.24508484 207.84606323 102.23620239 208.45648193 102.22705078 C214.62062944 102.13858433 220.78459674 102.07823603 226.94921875 102.03424072 C229.25007451 102.0141204 231.5508791 101.98682095 233.8515625 101.95220947 C237.15800598 101.90371116 240.46377367 101.8810025 243.77050781 101.86334229 C244.79980408 101.84269714 245.82910034 101.822052 246.8895874 101.80078125 C250.83060055 101.79954186 253.77209733 101.80421992 257.31738281 103.59771729 C259.52870279 107.96893119 259.14848277 112.32221618 259.05175781 117.14459229 C259.04609802 118.20434265 259.04043823 119.26409302 259.03460693 120.35595703 C259.01222522 123.73908756 258.9620238 127.12115713 258.91113281 130.50396729 C258.89107021 132.79822282 258.87281903 135.09249496 258.85644531 137.38677979 C258.81235461 143.00953731 258.74542417 148.6316765 258.66113281 154.25396729 C259.25359802 154.24508484 259.84606323 154.23620239 260.45648193 154.22705078 C266.62062944 154.13858433 272.78459674 154.07823603 278.94921875 154.03424072 C281.25007451 154.0141204 283.5508791 153.98682095 285.8515625 153.95220947 C289.15800598 153.90371116 292.46377367 153.8810025 295.77050781 153.86334229 C296.79980408 153.84269714 297.82910034 153.822052 298.8895874 153.80078125 C299.85028137 153.80047913 300.81097534 153.800177 301.80078125 153.79986572 C302.64461365 153.79098328 303.48844604 153.78210083 304.35784912 153.77294922 C307.52940636 154.43529765 308.61937469 155.77505899 310.66113281 158.25396729 C311.15981747 160.65726484 311.15981747 160.65726484 311.1579268 163.39307046 C311.16691597 164.43985369 311.17590514 165.48663691 311.18516672 166.56514084 C311.17465866 167.71617889 311.16415061 168.86721693 311.15332413 170.05313492 C311.1579395 171.28013284 311.16255488 172.50713077 311.16731012 173.77131045 C311.17610761 177.19420425 311.16686088 180.61620863 311.15019758 184.03901802 C311.13648861 187.756108 311.14593861 191.47314883 311.15250754 195.19024825 C311.16081389 201.71041555 311.15420818 208.23043707 311.13795471 214.75058746 C311.11385331 224.44584133 311.11260787 234.14100294 311.11612267 243.8362813 C311.12138338 260.14379395 311.10799328 276.45124186 311.08405304 292.75873566 C311.06040245 308.91024343 311.0449928 325.06172425 311.04064178 341.21324921 C311.04036683 342.21668932 311.04009187 343.22012943 311.03980858 344.25397681 C311.03845528 349.34973347 311.03724973 354.44549015 311.03610107 359.54124686 C311.02769459 395.65481526 311.00073167 431.76834843 310.96289062 467.88189697 C310.92616599 502.97043673 310.89782513 538.05896685 310.88085938 573.14752197 C310.88033327 574.22869235 310.87980717 575.30986272 310.87926512 576.42379584 C310.87399114 587.28113883 310.86888787 598.1384819 310.86390968 608.99582503 C310.85376424 631.11440471 310.84247923 653.23298375 310.83050537 675.3515625 C310.82968163 676.87709973 310.82968163 676.87709973 310.82884125 678.4334559 C310.79202514 746.37364102 310.72864278 814.31380659 310.66113281 882.25396729 C311.53139343 882.2524484 312.40165405 882.25092952 313.2982862 882.24936461 C364.83749514 882.15991937 416.37669588 882.09125501 467.91596685 882.04970597 C474.09957699 882.04470293 480.28318697 882.03952566 486.46679688 882.03424072 C487.69788092 882.03319148 488.92896496 882.03214224 490.19735458 882.0310612 C510.15037737 882.01363958 530.10335422 881.98209223 550.05634972 881.9453561 C570.51863072 881.90799555 590.9808876 881.88574179 611.4432013 881.87761331 C624.07712032 881.87211539 636.71090951 881.85472929 649.34478858 881.82230142 C657.99956735 881.80121381 666.65427867 881.79475415 675.30908129 881.79996178 C680.30802374 881.80253254 685.3067388 881.79849674 690.30564117 881.77714539 C694.87775011 881.7577588 699.44947755 881.7566456 704.02160361 881.77037171 C705.67981412 881.77206951 707.33804791 881.76692854 708.99621221 881.75443456 C711.24280904 881.7384846 713.48801142 881.74696819 715.73458481 881.76177597 C716.98462414 881.76025709 718.23466346 881.75873821 719.52258277 881.7571733 C723.2394601 882.3455094 724.41929866 883.28779889 726.66113281 886.25396729 C727.14215088 888.55725098 727.14215088 888.55725098 727.11523438 891.11431885 C727.11493225 892.07501282 727.11463013 893.03570679 727.11431885 894.0255127 C727.09367371 895.05480896 727.07302856 896.08410522 727.05175781 897.14459229 C727.04609802 898.20434265 727.04043823 899.26409302 727.03460693 900.35595703 C727.01222522 903.73908756 726.9620238 907.12115713 726.91113281 910.50396729 C726.89107021 912.79822282 726.87281903 915.09249496 726.85644531 917.38677979 C726.81235461 923.00953731 726.74542417 928.6316765 726.66113281 934.25396729 C727.25359802 934.24508484 727.84606323 934.23620239 728.45648193 934.22705078 C734.62062944 934.13858433 740.78459674 934.07823603 746.94921875 934.03424072 C749.25007451 934.0141204 751.5508791 933.98682095 753.8515625 933.95220947 C757.15800598 933.90371116 760.46377367 933.8810025 763.77050781 933.86334229 C764.79980408 933.84269714 765.82910034 933.822052 766.8895874 933.80078125 C770.83060055 933.79954186 773.77209733 933.80421992 777.31738281 935.59771729 C779.52870279 939.96893119 779.14848277 944.32221618 779.05175781 949.14459229 C779.04609802 950.20434265 779.04043823 951.26409302 779.03460693 952.35595703 C779.01222522 955.73908756 778.9620238 959.12115713 778.91113281 962.50396729 C778.89107021 964.79822282 778.87281903 967.09249496 778.85644531 969.38677979 C778.81235461 975.00953731 778.74542417 980.6316765 778.66113281 986.25396729 C779.25359802 986.24508484 779.84606323 986.23620239 780.45648193 986.22705078 C786.62062944 986.13858433 792.78459674 986.07823603 798.94921875 986.03424072 C801.25007451 986.0141204 803.5508791 985.98682095 805.8515625 985.95220947 C809.15800598 985.90371116 812.46377367 985.8810025 815.77050781 985.86334229 C816.79980408 985.84269714 817.82910034 985.822052 818.8895874 985.80078125 C822.83060055 985.79954186 825.77209733 985.80421992 829.31738281 987.59771729 C831.52870279 991.96893119 831.14848277 996.32221618 831.05175781 1001.14459229 C831.04609802 1002.20434265 831.04043823 1003.26409302 831.03460693 1004.35595703 C831.01222522 1007.73908756 830.9620238 1011.12115713 830.91113281 1014.50396729 C830.89107021 1016.79822282 830.87281903 1019.09249496 830.85644531 1021.38677979 C830.81235461 1027.00953731 830.74542417 1032.6316765 830.66113281 1038.25396729 C831.25803925 1038.24730545 831.85494568 1038.24064362 832.46994019 1038.23377991 C838.66626617 1038.1675589 844.86249212 1038.12222202 851.05908203 1038.08917236 C853.37357667 1038.07405876 855.68804255 1038.05356732 858.00244141 1038.02764893 C861.32363977 1037.99137888 864.64446049 1037.97426685 867.96582031 1037.96099854 C869.52524857 1037.93777275 869.52524857 1037.93777275 871.11618042 1037.91407776 C872.07702545 1037.91385117 873.03787048 1037.91362457 874.02783203 1037.91339111 C874.87610565 1037.90672928 875.72437927 1037.90006744 876.59835815 1037.89320374 C877.27907379 1038.01225571 877.95978943 1038.13130768 878.66113281 1038.25396729 C881.04084444 1041.82353472 880.91234208 1043.35555891 880.9151001 1047.59283447 C880.91822008 1048.23848232 880.92134006 1048.88413017 880.92455459 1049.54934311 C880.93254311 1051.71660188 880.92620777 1053.88358133 880.91992188 1056.05084229 C880.92263136 1057.60304936 880.92619206 1059.15525515 880.93054199 1060.7074585 C880.9396733 1064.92638796 880.9361187 1069.14521979 880.92978382 1073.364151 C880.92472767 1077.77501696 880.9294142 1082.18587444 880.93255615 1086.59674072 C880.93619692 1094.00463363 880.9313938 1101.41248668 880.921875 1108.82037354 C880.91099023 1117.39038664 880.91451573 1125.9603046 880.92552781 1134.5303154 C880.93459754 1141.88238719 880.93588751 1149.23443031 880.93065047 1156.58650589 C880.92752904 1160.98019216 880.92712618 1165.37383368 880.93372345 1169.76751709 C880.93949171 1173.89775558 880.93550959 1178.02787113 880.92393494 1182.15809631 C880.92128556 1183.67586564 880.92205816 1185.19364527 880.92646027 1186.71141052 C880.93190632 1188.77944775 880.92509341 1190.84708831 880.9151001 1192.9151001 C880.91434605 1194.07358459 880.913592 1195.23206909 880.91281509 1196.42565918 C880.66113281 1199.25396729 880.66113281 1199.25396729 878.66113281 1202.25396729 C876.59835815 1202.61473083 876.59835815 1202.61473083 874.02783203 1202.59454346 C873.066987 1202.59431686 872.10614197 1202.59409027 871.11618042 1202.59385681 C870.07656158 1202.57837296 869.03694275 1202.5628891 867.96582031 1202.54693604 C866.90324005 1202.54269119 865.84065979 1202.53844635 864.74588013 1202.53407288 C861.34237636 1202.51724118 857.93945848 1202.47958031 854.53613281 1202.44146729 C852.23275593 1202.42642628 849.92936979 1202.41273686 847.62597656 1202.40045166 C841.97082776 1202.36732303 836.31602213 1202.31707925 830.66113281 1202.25396729 C830.66779465 1202.85087372 830.67445648 1203.44778015 830.68132019 1204.06277466 C830.7475412 1210.25910064 830.79287808 1216.4553266 830.82592773 1222.6519165 C830.84104134 1224.96641114 830.86153277 1227.28087702 830.88745117 1229.59527588 C830.92372122 1232.91647424 830.94083325 1236.23729496 830.95410156 1239.55865479 C830.96958542 1240.59827362 830.98506927 1241.63789246 831.00102234 1242.70901489 C831.00124893 1243.66985992 831.00147552 1244.63070496 831.00170898 1245.6206665 C831.00837082 1246.46894012 831.01503265 1247.31721375 831.02189636 1248.19119263 C830.90284439 1248.87190826 830.78379242 1249.5526239 830.66113281 1250.25396729 C827.22372751 1252.54557082 825.98824752 1252.50413845 821.94435692 1252.50466561 C820.14219219 1252.51217617 820.14219219 1252.51217617 818.3036201 1252.51983845 C816.96090685 1252.51528439 815.61819421 1252.51054799 814.27548218 1252.50564957 C812.85056513 1252.5077344 811.42564913 1252.51069582 810.00073552 1252.5144583 C806.05833734 1252.52229258 802.11603628 1252.51756245 798.17363957 1252.51090239 C793.89478303 1252.50585303 789.615942 1252.51233923 785.33708763 1252.51738906 C777.82898181 1252.52463272 770.32090472 1252.5243809 762.81279755 1252.51929474 C751.64826701 1252.51175206 740.48376085 1252.51558561 729.3192305 1252.52171135 C709.38324895 1252.53226198 689.44728018 1252.53132245 669.5112974 1252.52555353 C652.06537121 1252.52052972 634.61944972 1252.5192056 617.17352295 1252.52159882 C616.01795133 1252.52175159 614.86237971 1252.52190436 613.67179076 1252.52206176 C608.98138437 1252.5226844 604.29097798 1252.52332119 599.6005716 1252.52398128 C555.5677954 1252.53010436 511.53502737 1252.52454431 467.50225243 1252.51378749 C428.35013006 1252.50429572 389.1980207 1252.50514495 350.04589844 1252.51470947 C306.09555423 1252.52541017 262.14521723 1252.52967018 218.1948719 1252.52348495 C213.51282883 1252.52284347 208.83078575 1252.5222178 204.14874268 1252.52159882 C202.99583695 1252.52144066 201.84293121 1252.52128251 200.65508895 1252.52111956 C183.21673294 1252.51884107 165.77838214 1252.52151175 148.34002686 1252.52655792 C128.51917616 1252.5322648 108.69834031 1252.53087171 88.87749147 1252.51999643 C77.77361468 1252.51410557 66.66976998 1252.51376676 55.565894 1252.52128878 C48.16063633 1252.5257536 40.75540453 1252.5230188 33.35015071 1252.51427925 C29.12310184 1252.50949479 24.89611699 1252.50795028 20.66907001 1252.51509121 C16.83003257 1252.52151093 12.99111646 1252.51886684 9.15208802 1252.50872989 C7.76575567 1252.50670151 6.37941347 1252.50808424 4.99308887 1252.51314177 C3.12137078 1252.51949004 1.24962131 1252.51246601 -0.62209129 1252.50466561 C-2.18143664 1252.50446234 -2.18143664 1252.50446234 -3.77228391 1252.50425495 C-6.33886719 1252.25396729 -6.33886719 1252.25396729 -9.33886719 1250.25396729 C-9.69963074 1248.19119263 -9.69963074 1248.19119263 -9.67944336 1245.6206665 C-9.67921677 1244.65982147 -9.67899017 1243.69897644 -9.67875671 1242.70901489 C-9.66327286 1241.66939606 -9.647789 1240.62977722 -9.63183594 1239.55865479 C-9.62759109 1238.49607452 -9.62334625 1237.43349426 -9.61897278 1236.3387146 C-9.60214108 1232.93521083 -9.56448022 1229.53229296 -9.52636719 1226.12896729 C-9.51132618 1223.8255904 -9.49763676 1221.52220427 -9.48535156 1219.21881104 C-9.45222293 1213.56366223 -9.40197915 1207.90885661 -9.33886719 1202.25396729 C-9.9313324 1202.26284973 -10.52379761 1202.27173218 -11.13421631 1202.28088379 C-17.29836381 1202.36935024 -23.46233111 1202.42969854 -29.62695312 1202.47369385 C-31.92780888 1202.49381417 -34.22861348 1202.52111362 -36.52929688 1202.5557251 C-39.83574036 1202.60422341 -43.14150804 1202.62693207 -46.44824219 1202.64459229 C-47.47753845 1202.66523743 -48.50683472 1202.68588257 -49.56732178 1202.70715332 C-53.50833492 1202.70839271 -56.44983171 1202.70371465 -59.99511719 1200.91021729 C-62.20643716 1196.53900338 -61.82621715 1192.18571839 -61.72949219 1187.36334229 C-61.7238324 1186.30359192 -61.71817261 1185.24384155 -61.71234131 1184.15197754 C-61.68995959 1180.76884701 -61.63975817 1177.38677744 -61.58886719 1174.00396729 C-61.56880459 1171.70971175 -61.5505534 1169.41543961 -61.53417969 1167.12115479 C-61.49008899 1161.49839726 -61.42315854 1155.87625807 -61.33886719 1150.25396729 C-61.93577362 1150.26062912 -62.53268005 1150.26729095 -63.14767456 1150.27415466 C-69.34400054 1150.34037567 -75.5402265 1150.38571255 -81.73681641 1150.41876221 C-84.05131104 1150.43387581 -86.36577692 1150.45436725 -88.68017578 1150.48028564 C-92.00137415 1150.51655569 -95.32219487 1150.53366772 -98.64355469 1150.54693604 C-100.20298294 1150.57016182 -100.20298294 1150.57016182 -101.79391479 1150.59385681 C-103.23518234 1150.5941967 -103.23518234 1150.5941967 -104.70556641 1150.59454346 C-105.55384003 1150.60120529 -106.40211365 1150.60786713 -107.27609253 1150.61473083 C-107.95680817 1150.49567886 -108.6375238 1150.37662689 -109.33886719 1150.25396729 C-111.82144736 1146.53009703 -111.58910123 1144.65426418 -111.58956552 1140.2034893 C-111.59237015 1139.47643447 -111.59517478 1138.74937963 -111.59806441 1138.00029283 C-111.60507814 1135.54007964 -111.59772342 1133.08011344 -111.59054947 1130.61990356 C-111.59263393 1128.84025779 -111.59559506 1127.06061287 -111.5993582 1125.28096986 C-111.60719782 1120.35365996 -111.60245957 1115.42642769 -111.5958023 1110.49911895 C-111.59075549 1105.15259534 -111.5972381 1099.80608418 -111.60228896 1094.4595623 C-111.60953451 1085.07688301 -111.60927965 1075.6942267 -111.60419464 1066.31154633 C-111.59665367 1052.35955638 -111.60048462 1038.40758595 -111.60661126 1024.45559615 C-111.61655079 1000.98850163 -111.61689389 977.52141681 -111.61145782 954.05432129 C-111.61129223 953.33914159 -111.61112664 952.62396189 -111.61095603 951.88711008 C-111.61079017 951.17079246 -111.61062432 950.45447484 -111.61045343 949.71645063 C-111.60541203 927.91513266 -111.60410197 906.11381843 -111.60649872 884.3125 C-111.60665368 882.85398308 -111.60680799 881.39546616 -111.60696166 879.93694924 C-111.60758256 874.07613781 -111.60821989 868.21532638 -111.60888119 862.35451495 C-111.61071542 845.96995539 -111.61185646 829.58539583 -111.61245346 813.20083618 C-111.61248075 812.45465102 -111.61250804 811.70846587 -111.61253616 810.93966904 C-111.61335502 787.15418593 -111.61109939 763.36870413 -111.6067543 739.58322144 C-111.6066138 738.81148082 -111.60647331 738.03974021 -111.60632855 737.24461351 C-111.60403851 724.71114024 -111.60159965 712.177667 -111.5991482 699.64419376 C-111.58943514 649.93143237 -111.58988595 600.21868175 -111.59960938 550.50592041 C-111.60205165 537.97885133 -111.60447371 525.45178225 -111.6067543 512.92471313 C-111.6068952 512.15343149 -111.6070361 511.38214984 -111.60718126 510.58749603 C-111.61149203 486.82736331 -111.61332248 463.06723149 -111.61245346 439.30709839 C-111.61242629 438.56145749 -111.61239912 437.81581659 -111.61237113 437.0475805 C-111.61174624 420.68138675 -111.6104791 404.3151931 -111.60863245 387.94899944 C-111.60797414 382.09334986 -111.60734798 376.23770026 -111.60673103 370.38205067 C-111.60657626 368.92524649 -111.6064188 367.46844231 -111.60625864 366.01163813 C-111.60386901 344.21469867 -111.60590908 322.41776342 -111.61095603 300.62082449 C-111.61112163 299.90564479 -111.61128722 299.19046509 -111.61145782 298.45361328 C-111.61162319 297.73974625 -111.61178855 297.02587921 -111.61195893 296.29037984 C-111.61746859 272.24258512 -111.61545627 248.19480278 -111.60489634 224.14700937 C-111.59900444 210.27034713 -111.59866813 196.39371057 -111.60618869 182.51704898 C-111.61065228 173.26353095 -111.60792094 164.01003364 -111.59917915 154.7565187 C-111.59439298 149.4738309 -111.59285369 144.19119436 -111.59999111 138.90850806 C-111.60640653 134.11160979 -111.60377305 129.31480867 -111.59362979 124.5179176 C-111.59159988 122.78483923 -111.59298805 121.05175299 -111.59804167 119.31868079 C-111.60438098 116.98048191 -111.59858512 114.6426277 -111.58956552 112.30444527 C-111.58943 111.00532994 -111.58929448 109.70621462 -111.58915485 108.36773217 C-111.33886719 105.25396729 -111.33886719 105.25396729 -109.33886719 102.25396729 C-107.27609253 101.89320374 -107.27609253 101.89320374 -104.70556641 101.91339111 C-103.26429886 101.913731 -103.26429886 101.913731 -101.79391479 101.91407776 C-100.75429596 101.92956161 -99.71467712 101.94504547 -98.64355469 101.96099854 C-97.58097443 101.96524338 -96.51839417 101.96948822 -95.4236145 101.97386169 C-92.02011073 101.99069339 -88.61719286 102.02835426 -85.21386719 102.06646729 C-82.9104903 102.08150829 -80.60710417 102.09519771 -78.30371094 102.10748291 C-72.64856214 102.14061154 -66.99375651 102.19085532 -61.33886719 102.25396729 C-61.34774963 101.66150208 -61.35663208 101.06903687 -61.36578369 100.45861816 C-61.45425014 94.29447066 -61.51459845 88.13050336 -61.55859375 81.96588135 C-61.57871407 79.66502559 -61.60601353 77.36422099 -61.640625 75.0635376 C-61.68912331 71.75709411 -61.71183197 68.45132643 -61.72949219 65.14459229 C-61.75013733 64.11529602 -61.77078247 63.08599976 -61.79205322 62.0255127 C-61.79329261 58.08449955 -61.78861455 55.14300277 -59.99511719 51.59771729 C-55.62390328 49.38639731 -51.27061829 49.76661733 -46.44824219 49.86334229 C-44.85861664 49.87183197 -44.85861664 49.87183197 -43.23687744 49.88049316 C-39.85374691 49.90287488 -36.47167735 49.9530763 -33.08886719 50.00396729 C-30.79461165 50.02402989 -28.50033951 50.04228107 -26.20605469 50.05865479 C-20.58329716 50.10274549 -14.96115797 50.16967593 -9.33886719 50.25396729 C-9.34885994 49.35860764 -9.34885994 49.35860764 -9.35905457 48.44515991 C-9.42527557 42.24883393 -9.47061245 36.05260797 -9.50366211 29.85601807 C-9.51877572 27.54152343 -9.53926715 25.22705755 -9.56518555 22.91265869 C-9.60145559 19.59146033 -9.61856762 16.27063961 -9.63183594 12.94927979 C-9.64731979 11.90966095 -9.66280365 10.87004211 -9.67875671 9.79891968 C-9.67898331 8.83807465 -9.6792099 7.87722961 -9.67944336 6.88726807 C-9.68943611 5.61485764 -9.68943611 5.61485764 -9.69963074 4.31674194 C-9.58057877 3.63602631 -9.46152679 2.95531067 -9.33886719 2.25396729 C-5.76929975 -0.12574434 -4.23727557 0.00275802 0 0 Z M-5.33886719 54.25396729 C-5.33886719 71.41396729 -5.33886719 88.57396729 -5.33886719 106.25396729 C-22.49886719 106.25396729 -39.65886719 106.25396729 -57.33886719 106.25396729 C-57.33886719 209.21396729 -57.33886719 312.17396729 -57.33886719 418.25396729 C-40.17886719 418.25396729 -23.01886719 418.25396729 -5.33886719 418.25396729 C-5.33886719 435.41396729 -5.33886719 452.57396729 -5.33886719 470.25396729 C-22.49886719 470.25396729 -39.65886719 470.25396729 -57.33886719 470.25396729 C-57.33886719 504.57396729 -57.33886719 538.89396729 -57.33886719 574.25396729 C-40.17886719 574.25396729 -23.01886719 574.25396729 -5.33886719 574.25396729 C-5.33886719 591.41396729 -5.33886719 608.57396729 -5.33886719 626.25396729 C-22.49886719 626.25396729 -39.65886719 626.25396729 -57.33886719 626.25396729 C-57.33886719 797.85396729 -57.33886719 969.45396729 -57.33886719 1146.25396729 C-40.17886719 1146.25396729 -23.01886719 1146.25396729 -5.33886719 1146.25396729 C-5.33886719 1163.41396729 -5.33886719 1180.57396729 -5.33886719 1198.25396729 C269.22113281 1198.25396729 543.78113281 1198.25396729 826.66113281 1198.25396729 C826.66113281 1146.77396729 826.66113281 1095.29396729 826.66113281 1042.25396729 C809.50113281 1042.25396729 792.34113281 1042.25396729 774.66113281 1042.25396729 C774.66113281 1025.09396729 774.66113281 1007.93396729 774.66113281 990.25396729 C603.06113281 990.25396729 431.46113281 990.25396729 254.66113281 990.25396729 C254.66113281 955.93396729 254.66113281 921.61396729 254.66113281 886.25396729 C237.50113281 886.25396729 220.34113281 886.25396729 202.66113281 886.25396729 C202.66113281 800.45396729 202.66113281 714.65396729 202.66113281 626.25396729 C185.50113281 626.25396729 168.34113281 626.25396729 150.66113281 626.25396729 C150.66113281 609.09396729 150.66113281 591.93396729 150.66113281 574.25396729 C167.82113281 574.25396729 184.98113281 574.25396729 202.66113281 574.25396729 C202.66113281 539.93396729 202.66113281 505.61396729 202.66113281 470.25396729 C185.50113281 470.25396729 168.34113281 470.25396729 150.66113281 470.25396729 C150.66113281 453.09396729 150.66113281 435.93396729 150.66113281 418.25396729 C167.82113281 418.25396729 184.98113281 418.25396729 202.66113281 418.25396729 C202.66113281 315.29396729 202.66113281 212.33396729 202.66113281 106.25396729 C185.50113281 106.25396729 168.34113281 106.25396729 150.66113281 106.25396729 C150.66113281 89.09396729 150.66113281 71.93396729 150.66113281 54.25396729 C99.18113281 54.25396729 47.70113281 54.25396729 -5.33886719 54.25396729 Z " fill="#272945" transform="translate(281.3388671875,13.74603271484375)"/>
<path d="M0 0 C51.48 0 102.96 0 156 0 C156 17.16 156 34.32 156 52 C173.16 52 190.32 52 208 52 C208 154.96 208 257.92 208 364 C190.84 364 173.68 364 156 364 C156 381.16 156 398.32 156 416 C173.16 416 190.32 416 208 416 C208 450.32 208 484.64 208 520 C190.84 520 173.68 520 156 520 C156 537.16 156 554.32 156 572 C138.84 572 121.68 572 104 572 C104 589.16 104 606.32 104 624 C86.84 624 69.68 624 52 624 C52 606.84 52 589.68 52 572 C34.84 572 17.68 572 0 572 C0 554.84 0 537.68 0 520 C-17.16 520 -34.32 520 -52 520 C-52 485.68 -52 451.36 -52 416 C-34.84 416 -17.68 416 0 416 C0 398.84 0 381.68 0 364 C-17.16 364 -34.32 364 -52 364 C-52 261.04 -52 158.08 -52 52 C-34.84 52 -17.68 52 0 52 C0 34.84 0 17.68 0 0 Z " fill="#43E3FE" transform="translate(276,68)"/>
<path d="M0 0 C51.48 0 102.96 0 156 0 C156 17.16 156 34.32 156 52 C104.52 52 53.04 52 0 52 C0 34.84 0 17.68 0 0 Z " fill="#A6F1FE" transform="translate(276,68)"/>
<path d="M0 0 C17.16 0 34.32 0 52 0 C52 34.32 52 68.64 52 104 C34.84 104 17.68 104 0 104 C0 69.68 0 35.36 0 0 Z " fill="#43E3FE" transform="translate(432,744)"/>
<path d="M0 0 C17.16 0 34.32 0 52 0 C52 34.32 52 68.64 52 104 C34.84 104 17.68 104 0 104 C0 69.68 0 35.36 0 0 Z " fill="#43E3FE" transform="translate(328,744)"/>
<path d="M0 0 C17.16 0 34.32 0 52 0 C52 34.32 52 68.64 52 104 C34.84 104 17.68 104 0 104 C0 69.68 0 35.36 0 0 Z " fill="#43E3FE" transform="translate(224,744)"/>
<path d="M0 0 C17.16 0 34.32 0 52 0 C52 17.16 52 34.32 52 52 C34.84 52 17.68 52 0 52 C0 34.84 0 17.68 0 0 Z " fill="#43E3FE" transform="translate(848,1108)"/>
<path d="M0 0 C17.16 0 34.32 0 52 0 C52 17.16 52 34.32 52 52 C34.84 52 17.68 52 0 52 C0 34.84 0 17.68 0 0 Z " fill="#43E3FE" transform="translate(432,1108)"/>
<path d="M0 0 C17.16 0 34.32 0 52 0 C52 17.16 52 34.32 52 52 C34.84 52 17.68 52 0 52 C0 34.84 0 17.68 0 0 Z " fill="#43E3FE" transform="translate(952,1056)"/>
<path d="M0 0 C17.16 0 34.32 0 52 0 C52 17.16 52 34.32 52 52 C34.84 52 17.68 52 0 52 C0 34.84 0 17.68 0 0 Z " fill="#43E3FE" transform="translate(328,1056)"/>
<path d="M0 0 C17.16 0 34.32 0 52 0 C52 17.16 52 34.32 52 52 C34.84 52 17.68 52 0 52 C0 34.84 0 17.68 0 0 Z " fill="#43E3FD" transform="translate(432,640)"/>
<path d="M0 0 C17.16 0 34.32 0 52 0 C52 17.16 52 34.32 52 52 C34.84 52 17.68 52 0 52 C0 34.84 0 17.68 0 0 Z " fill="#43E3FE" transform="translate(328,640)"/>
<path d="M0 0 C17.16 0 34.32 0 52 0 C52 17.16 52 34.32 52 52 C34.84 52 17.68 52 0 52 C0 34.84 0 17.68 0 0 Z " fill="#43E3FD" transform="translate(224,640)"/>
<path d="M0 0 C17.16 0 34.32 0 52 0 C52 17.16 52 34.32 52 52 C34.84 52 17.68 52 0 52 C0 34.84 0 17.68 0 0 Z " fill="#08899E" transform="translate(432,588)"/>
<path d="M0 0 C17.16 0 34.32 0 52 0 C52 17.16 52 34.32 52 52 C34.84 52 17.68 52 0 52 C0 34.84 0 17.68 0 0 Z " fill="#43E3FE" transform="translate(380,588)"/>
<path d="M0 0 C17.16 0 34.32 0 52 0 C52 17.16 52 34.32 52 52 C34.84 52 17.68 52 0 52 C0 34.84 0 17.68 0 0 Z " fill="#08899E" transform="translate(328,588)"/>
<path d="M0 0 C17.16 0 34.32 0 52 0 C52 17.16 52 34.32 52 52 C34.84 52 17.68 52 0 52 C0 34.84 0 17.68 0 0 Z " fill="#43E3FE" transform="translate(276,588)"/>
<path d="M0 0 C17.16 0 34.32 0 52 0 C52 17.16 52 34.32 52 52 C34.84 52 17.68 52 0 52 C0 34.84 0 17.68 0 0 Z " fill="#08899E" transform="translate(224,588)"/>
<path d="M0 0 C17.16 0 34.32 0 52 0 C52 17.16 52 34.32 52 52 C34.84 52 17.68 52 0 52 C0 34.84 0 17.68 0 0 Z " fill="#08899E" transform="translate(380,536)"/>
<path d="M0 0 C17.16 0 34.32 0 52 0 C52 17.16 52 34.32 52 52 C34.84 52 17.68 52 0 52 C0 34.84 0 17.68 0 0 Z " fill="#08899E" transform="translate(276,536)"/>
<path d="M0 0 C17.16 0 34.32 0 52 0 C52 17.16 52 34.32 52 52 C34.84 52 17.68 52 0 52 C0 34.84 0 17.68 0 0 Z " fill="#08899E" transform="translate(432,432)"/>
<path d="M0 0 C17.16 0 34.32 0 52 0 C52 17.16 52 34.32 52 52 C34.84 52 17.68 52 0 52 C0 34.84 0 17.68 0 0 Z " fill="#08899E" transform="translate(328,432)"/>
<path d="M0 0 C17.16 0 34.32 0 52 0 C52 17.16 52 34.32 52 52 C34.84 52 17.68 52 0 52 C0 34.84 0 17.68 0 0 Z " fill="#08899E" transform="translate(224,432)"/>
<path d="M0 0 C17.16 0 34.32 0 52 0 C52 17.16 52 34.32 52 52 C34.84 52 17.68 52 0 52 C0 34.84 0 17.68 0 0 Z " fill="#08899E" transform="translate(380,328)"/>
<path d="M0 0 C17.16 0 34.32 0 52 0 C52 17.16 52 34.32 52 52 C34.84 52 17.68 52 0 52 C0 34.84 0 17.68 0 0 Z " fill="#08899E" transform="translate(276,328)"/>
<path d="M0 0 C17.16 0 34.32 0 52 0 C52 17.16 52 34.32 52 52 C34.84 52 17.68 52 0 52 C0 34.84 0 17.68 0 0 Z " fill="#A6F1FE" transform="translate(432,120)"/>
<path d="M0 0 C17.16 0 34.32 0 52 0 C52 17.16 52 34.32 52 52 C34.84 52 17.68 52 0 52 C0 34.84 0 17.68 0 0 Z " fill="#A6F1FE" transform="translate(224,120)"/>
<path d="M0 0 C0.33 0 0.66 0 1 0 C1 238.92 1 477.84 1 724 C136.96 724 272.92 724 413 724 C413 724.33 413 724.66 413 725 C276.38 725.33 139.76 725.66 -1 726 C-0.67 486.42 -0.34 246.84 0 0 Z " fill="#000000" transform="translate(591,172)"/>
<path d="M0 0 C0.33 0 0.66 0 1 0 C1 343.2 1 686.4 1 1040 C0.67 1040 0.34 1040 0 1040 C0 696.8 0 353.6 0 0 Z " fill="#000000" transform="translate(168,120)"/>
<path d="M0 0 C274.56 0 549.12 0 832 0 C832 0.33 832 0.66 832 1 C557.44 1 282.88 1 0 1 C0 0.67 0 0.34 0 0 Z " fill="#000000" transform="translate(276,1267)"/>
<path d="M0 0 C0.33 0 0.66 0 1 0 C1 51.48 1 102.96 1 156 C0.67 156 0.34 156 0 156 C0 104.52 0 53.04 0 0 Z " fill="#000000" transform="translate(1163,1056)"/>
<path d="M0 0 C51.48 0 102.96 0 156 0 C156 0.33 156 0.66 156 1 C104.52 1 53.04 1 0 1 C0 0.67 0 0.34 0 0 Z " fill="#000000" transform="translate(276,12)"/>
<path d="M0 0 C24.75 0.495 24.75 0.495 50 1 C50 1.33 50 1.66 50 2 C34.16 2 18.32 2 2 2 C2 17.84 2 33.68 2 50 C1.67 50 1.34 50 1 50 C0.67 33.5 0.34 17 0 0 Z " fill="#000000" transform="translate(1110,1214)"/>
<path d="M0 0 C-0.33 16.5 -0.66 33 -1 50 C-1.33 50 -1.66 50 -2 50 C-2 34.16 -2 18.32 -2 2 C-17.84 2 -33.68 2 -50 2 C-50 1.67 -50 1.34 -50 1 C-43.20068967 0.85729375 -36.40137264 0.71491012 -29.60205078 0.57275391 C-27.28759609 0.52432619 -24.97314296 0.47582382 -22.65869141 0.42724609 C-19.33756915 0.35755231 -16.01644144 0.28812446 -12.6953125 0.21875 C-11.65569366 0.19687622 -10.61607483 0.17500244 -9.54495239 0.15246582 C-8.10368484 0.12243469 -8.10368484 0.12243469 -6.63330078 0.09179688 C-5.36089035 0.06514954 -5.36089035 0.06514954 -4.06277466 0.03796387 C-2.70868662 0.01304286 -1.35431734 0 0 0 Z " fill="#000000" transform="translate(274,1214)"/>
<path d="M0 0 C-0.33 16.5 -0.66 33 -1 50 C-1.33 50 -1.66 50 -2 50 C-2 34.16 -2 18.32 -2 2 C-17.84 2 -33.68 2 -50 2 C-50 1.67 -50 1.34 -50 1 C-43.20068967 0.85729375 -36.40137264 0.71491012 -29.60205078 0.57275391 C-27.28759609 0.52432619 -24.97314296 0.47582382 -22.65869141 0.42724609 C-19.33756915 0.35755231 -16.01644144 0.28812446 -12.6953125 0.21875 C-11.65569366 0.19687622 -10.61607483 0.17500244 -9.54495239 0.15246582 C-8.10368484 0.12243469 -8.10368484 0.12243469 -6.63330078 0.09179688 C-5.36089035 0.06514954 -5.36089035 0.06514954 -4.06277466 0.03796387 C-2.70868662 0.01304286 -1.35431734 0 0 0 Z " fill="#000000" transform="translate(222,1162)"/>
<path d="M0 0 C0.33 0 0.66 0 1 0 C1 15.84 1 31.68 1 48 C16.84 48 32.68 48 49 48 C49 48.33 49 48.66 49 49 C32.5 49.33 16 49.66 -1 50 C-0.67 33.5 -0.34 17 0 0 Z " fill="#000000" transform="translate(1111,1004)"/>
<path d="M0 0 C0.33 0 0.66 0 1 0 C1 15.84 1 31.68 1 48 C16.84 48 32.68 48 49 48 C49 48.33 49 48.66 49 49 C32.5 49.33 16 49.66 -1 50 C-0.67 33.5 -0.34 17 0 0 Z " fill="#000000" transform="translate(1059,952)"/>
<path d="M0 0 C0.33 0 0.66 0 1 0 C1 15.84 1 31.68 1 48 C16.84 48 32.68 48 49 48 C49 48.33 49 48.66 49 49 C32.5 49.33 16 49.66 -1 50 C-0.67 33.5 -0.34 17 0 0 Z " fill="#000000" transform="translate(1007,900)"/>
<path d="M0 0 C0.33 0 0.66 0 1 0 C1 15.84 1 31.68 1 48 C16.84 48 32.68 48 49 48 C49 48.33 49 48.66 49 49 C32.5 49.33 16 49.66 -1 50 C-0.67 33.5 -0.34 17 0 0 Z " fill="#000000" transform="translate(539,120)"/>
<path d="M0 0 C0.33 0 0.66 0 1 0 C1 15.84 1 31.68 1 48 C16.84 48 32.68 48 49 48 C49 48.33 49 48.66 49 49 C32.5 49.33 16 49.66 -1 50 C-0.67 33.5 -0.34 17 0 0 Z " fill="#000000" transform="translate(487,68)"/>
<path d="M0 0 C0.33 0 0.66 0 1 0 C1.33 16.5 1.66 33 2 50 C-22.75 49.505 -22.75 49.505 -48 49 C-48 48.67 -48 48.34 -48 48 C-32.16 48 -16.32 48 0 48 C0 32.16 0 16.32 0 0 Z " fill="#000000" transform="translate(220,68)"/>
<path d="M0 0 C0.33 0 0.66 0 1 0 C1 15.84 1 31.68 1 48 C16.84 48 32.68 48 49 48 C49 48.33 49 48.66 49 49 C32.5 49.33 16 49.66 -1 50 C-0.67 33.5 -0.34 17 0 0 Z " fill="#000000" transform="translate(435,16)"/>
<path d="M0 0 C0.33 0 0.66 0 1 0 C1.33 16.5 1.66 33 2 50 C-22.75 49.505 -22.75 49.505 -48 49 C-48 48.67 -48 48.34 -48 48 C-32.16 48 -16.32 48 0 48 C0 32.16 0 16.32 0 0 Z " fill="#000000" transform="translate(272,16)"/>
</svg>
